<svg id="R-Green" xmlns="http://www.w3.org/2000/svg" width="62.298" height="62.318" viewBox="0 0 62.298 62.318">
  <g id="Grupo_150" data-name="Grupo 150" transform="translate(0)">
    <path id="Trazado_603" data-name="Trazado 603" d="M62.334,31.145c0,17.2-13.961,31.9-31.145,31.145C13.235,61.506-.311,47.978.043,31.145.4,13.948,13.987,0,31.188,0A31.146,31.146,0,0,1,62.334,31.145Z" transform="translate(-0.036)" fill="#77e0c4"/>
  </g>
  <g id="Grupo_162" data-name="Grupo 162" transform="translate(13.01 14.163)">
    <path id="Trazado_604" data-name="Trazado 604" d="M53.361,43.7V34.631a9.631,9.631,0,0,0-19.262,0V43.7c0,5.665-5.1,4.532-5.1,4.532s.567,4.532,7.931,4.532h13.6c7.365,0,7.931-4.532,7.931-4.532S53.361,49.361,53.361,43.7Z" transform="translate(-25.601 -25)" fill="#009687"/>
    <path id="Trazado_605" data-name="Trazado 605" d="M34.1,34.631V43.7c0,5.665-5.1,4.532-5.1,4.532s.567,4.532,7.931,4.532h6.8V25A9.631,9.631,0,0,0,34.1,34.631Z" transform="translate(-25.601 -25)" fill="#00b8a5"/>
    <path id="Trazado_606" data-name="Trazado 606" d="M57.223,73.908A4.532,4.532,0,0,0,54.3,71.194L45.095,69l-3.966.567L37.163,69l-9.2,2.194a4.532,4.532,0,0,0-2.928,2.714L23,79.2H59.258Z" transform="translate(-23 -44.073)" fill="#0a3631"/>
    <path id="Trazado_607" data-name="Trazado 607" d="M55,65.72v10.2h1.133l4.532-9.631V61.433A10.454,10.454,0,0,1,55,65.72Z" transform="translate(-36.871 -40.793)" fill="#aaf0e9"/>
    <path id="Trazado_608" data-name="Trazado 608" d="M45,61.433v4.853l4.532,9.631h1.133V65.72A10.454,10.454,0,0,1,45,61.433Z" transform="translate(-32.536 -40.793)" fill="#d7fcf9"/>
    <path id="Trazado_609" data-name="Trazado 609" d="M56.129,42.608h-.567s0-.008,0-.012a28.768,28.768,0,0,0-.141-3.115,2.815,2.815,0,0,1-5.241.376,2.817,2.817,0,0,1-5.1,0,2.816,2.816,0,0,1-5.242-.376A28.774,28.774,0,0,0,39.7,42.6v.012h-.567A1.292,1.292,0,0,0,38,43.867c0,1.751.489,4.039,2.367,4.364A10.7,10.7,0,0,0,47.631,56.2,10.7,10.7,0,0,0,54.9,48.23c1.877-.324,2.367-2.613,2.367-4.364A1.292,1.292,0,0,0,56.129,42.608Z" transform="translate(-29.502 -31.277)" fill="#d7fcf9"/>
    <path id="Trazado_610" data-name="Trazado 610" d="M45.082,39.857a2.816,2.816,0,0,1-5.242-.376A28.774,28.774,0,0,0,39.7,42.6v.012h-.567A1.292,1.292,0,0,0,38,43.867c0,1.751.489,4.039,2.367,4.364A10.7,10.7,0,0,0,47.631,56.2V41.475A2.825,2.825,0,0,1,45.082,39.857Z" transform="translate(-29.502 -31.277)" fill="#fff"/>
    <g id="Grupo_151" data-name="Grupo 151" transform="translate(15.296 18.695)">
      <path id="Trazado_611" data-name="Trazado 611" d="M50,58h5.665s0,1.7-2.833,1.7S50,58,50,58Z" transform="translate(-50 -58)" fill="#55c9be"/>
    </g>
    <g id="Grupo_152" data-name="Grupo 152" transform="translate(7.931 23.794)">
      <path id="Trazado_612" data-name="Trazado 612" d="M41.532,67c0,.567,2.53,8.978,5.665,11.331H45.5s-5.665-7.365-8.5-7.365C37.567,68.133,41.532,67,41.532,67Z" transform="translate(-37 -67)" fill="#fff"/>
    </g>
    <g id="Grupo_153" data-name="Grupo 153" transform="translate(18.129 23.794)">
      <path id="Trazado_613" data-name="Trazado 613" d="M60.665,67c0,.567-2.53,8.978-5.665,11.331h1.7s5.665-7.365,8.5-7.365C64.631,68.133,60.665,67,60.665,67Z" transform="translate(-55 -67)" fill="#fff"/>
    </g>
    <g id="Grupo_154" data-name="Grupo 154" transform="translate(14.17 11.306)">
      <path id="Trazado_614" data-name="Trazado 614" d="M50.275,46.089a1.133,1.133,0,0,0-1.133-1.133h0c0,.012,0,.023,0,.035a1.133,1.133,0,0,1-1.13,1.133,1.132,1.132,0,0,0,2.263-.035Z" transform="translate(-48.012 -44.956)" fill="#0a3631"/>
    </g>
    <g id="Grupo_155" data-name="Grupo 155" transform="translate(19.832 11.306)">
      <path id="Trazado_615" data-name="Trazado 615" d="M60.269,46.089a1.133,1.133,0,0,0-1.133-1.133h0c0,.012,0,.023,0,.035a1.133,1.133,0,0,1-1.13,1.133,1.132,1.132,0,0,0,2.263-.035Z" transform="translate(-58.006 -44.956)" fill="#0a3631"/>
    </g>
    <g id="Grupo_161" data-name="Grupo 161" transform="translate(24.927 28.893)">
      <g id="Grupo_156" data-name="Grupo 156" transform="translate(0 1.133)">
        <path id="Trazado_616" data-name="Trazado 616" d="M74.365,82.532a.568.568,0,0,1-.567.567H67.567A.568.568,0,0,1,67,82.532V78.567A.568.568,0,0,1,67.567,78H73.8a.568.568,0,0,1,.567.567Z" transform="translate(-67 -78)" fill="#fff"/>
      </g>
      <g id="Grupo_157" data-name="Grupo 157" transform="translate(0.567 2.833)">
        <rect id="Rectángulo_224" data-name="Rectángulo 224" width="2.266" height="2.833" fill="#00d6c1"/>
      </g>
      <g id="Grupo_160" data-name="Grupo 160">
        <g id="Grupo_158" data-name="Grupo 158" transform="translate(2.833)">
          <path id="Trazado_617" data-name="Trazado 617" d="M73.7,77.7H72v-.85a.85.85,0,0,1,1.7,0Z" transform="translate(-72 -76)" fill="#aaf0e9"/>
        </g>
        <g id="Grupo_159" data-name="Grupo 159" transform="translate(0 1.133)">
          <path id="Trazado_618" data-name="Trazado 618" d="M74.365,79.133H67v-.567A.568.568,0,0,1,67.567,78H73.8a.568.568,0,0,1,.567.567Z" transform="translate(-67 -78)" fill="#aaf0e9"/>
        </g>
      </g>
    </g>
    <path id="Trazado_619" data-name="Trazado 619" d="M48.494,53.481H44.167a1.232,1.232,0,0,0-1.037.567h-.765a3.277,3.277,0,0,1-3.4-3.4V45H37.643a2.644,2.644,0,0,0,0,5.288h.189v.36a4.4,4.4,0,0,0,4.532,4.532h.658a1.235,1.235,0,0,0,1.144.773h4.327a1.236,1.236,0,1,0,0-2.472Z" transform="translate(-28.202 -33.669)" fill="#0a3631"/>
  </g>
</svg>
