<svg xmlns="http://www.w3.org/2000/svg" width="18.76" height="18.76" viewBox="0 0 18.76 18.76">
  <path id="_1497554805-social-media05_84877" data-name="1497554805-social-media05_84877" d="M170.218,154.8H157.942a3.246,3.246,0,0,0-3.242,3.242v12.275a3.246,3.246,0,0,0,3.242,3.242h12.275a3.246,3.246,0,0,0,3.242-3.242V158.042A3.246,3.246,0,0,0,170.218,154.8Zm-7.615,2.937.009.019h-.046Zm7.485,9.792-.139.259a2.487,2.487,0,0,1-2.835,1.26,10.842,10.842,0,0,1-7.541-7.541,2.476,2.476,0,0,1,1.26-2.835c.111-.056.213-.111.315-.167a.678.678,0,0,1,.889.232c.343.519.824,1.269,1.408,2.159a.688.688,0,0,1-.093.862l-.519.519a.889.889,0,0,0-.176,1,5.455,5.455,0,0,0,2.7,2.7.9.9,0,0,0,1-.176l.472-.472a.687.687,0,0,1,.862-.093l2.177,1.417A.67.67,0,0,1,170.088,167.529Z" transform="translate(-154.7 -154.8)" fill="#5d5d5d"/>
</svg>
