<svg xmlns="http://www.w3.org/2000/svg" width="17.585" height="13.994" viewBox="0 0 17.585 13.994">
  <g id="home_icon-icons.com_73532" transform="translate(0 -46.994)">
    <g id="Grupo_278" data-name="Grupo 278" transform="translate(-0.001 46.994)">
      <path id="Trazado_629" data-name="Trazado 629" d="M71.981,120.939l-6.272,5.17a.149.149,0,0,1-.006.033.149.149,0,0,0-.006.033v5.235a.708.708,0,0,0,.7.7h4.188V127.92h2.793v4.189h4.188a.709.709,0,0,0,.7-.7v-5.235a.154.154,0,0,0-.011-.065Z" transform="translate(-63.188 -118.114)" fill="#5d5d5d"/>
      <path id="Trazado_630" data-name="Trazado 630" d="M17.463,53.811l-2.389-1.985v-4.45a.336.336,0,0,0-.349-.349H12.631a.336.336,0,0,0-.349.349V49.5L9.621,47.278a1.353,1.353,0,0,0-1.658,0L.121,53.811a.317.317,0,0,0-.12.234.353.353,0,0,0,.076.256l.676.807a.372.372,0,0,0,.229.12.405.405,0,0,0,.262-.076l7.548-6.294,7.548,6.294a.336.336,0,0,0,.229.076H16.6a.372.372,0,0,0,.229-.12l.676-.807a.353.353,0,0,0,.076-.257A.318.318,0,0,0,17.463,53.811Z" transform="translate(0.001 -46.994)" fill="#5d5d5d"/>
    </g>
  </g>
</svg>
