<svg xmlns="http://www.w3.org/2000/svg" width="21.086" height="18.451" viewBox="0 0 21.086 18.451">
  <g id="login-square-arrow-button-outline_icon-icons.com_73220" transform="translate(0 -38.25)">
    <g id="_x36__30_" transform="translate(0 38.25)">
      <g id="Grupo_279" data-name="Grupo 279">
        <path id="Trazado_632" data-name="Trazado 632" d="M11.428,51.588a.659.659,0,0,0,.932.932l4.546-4.547a.76.76,0,0,0,0-1L12.36,42.43a.659.659,0,0,0-.932.932l3.455,3.455H.659a.659.659,0,0,0,0,1.318H14.883ZM18.451,38.25H5.272a2.636,2.636,0,0,0-2.636,2.636v2.636H3.954V40.886a1.318,1.318,0,0,1,1.318-1.318H18.451a1.318,1.318,0,0,1,1.318,1.318V54.065a1.318,1.318,0,0,1-1.318,1.318H5.272a1.318,1.318,0,0,1-1.318-1.318V51.429H2.636v2.636A2.636,2.636,0,0,0,5.272,56.7H18.451a2.636,2.636,0,0,0,2.636-2.636V40.886A2.636,2.636,0,0,0,18.451,38.25Z" transform="translate(0 -38.25)" fill="#5d5d5d"/>
      </g>
    </g>
  </g>
</svg>
